<svg width="28" height="28" viewBox="0 0 28 28" fill="none" xmlns="http://www.w3.org/2000/svg">
<g clip-path="url(#clip0_14_994)">
<path d="M2.33301 13.925C2.33301 9.58836 2.33301 7.41946 3.68081 6.07281C5.02861 4.72616 7.19636 4.72501 11.533 4.72501H16.133C20.4697 4.72501 22.6386 4.72501 23.9852 6.07281C25.3319 7.42061 25.333 9.58836 25.333 13.925V16.225C25.333 20.5617 25.333 22.7306 23.9852 24.0772C22.6374 25.4239 20.4697 25.425 16.133 25.425H11.533C7.19636 25.425 5.02746 25.425 3.68081 24.0772C2.33416 22.7294 2.33301 20.5617 2.33301 16.225V13.925Z" stroke="#343434" stroke-width="1.5"/>
<path opacity="0.5" d="M8.08296 4.725V3M19.583 4.725V3M2.90796 10.475H24.758" stroke="#343434" stroke-width="1.5" stroke-linecap="round"/>
<path d="M20.7331 19.675C20.7331 19.98 20.6119 20.2725 20.3963 20.4882C20.1806 20.7038 19.8881 20.825 19.5831 20.825C19.2781 20.825 18.9856 20.7038 18.7699 20.4882C18.5543 20.2725 18.4331 19.98 18.4331 19.675C18.4331 19.37 18.5543 19.0775 18.7699 18.8618C18.9856 18.6462 19.2781 18.525 19.5831 18.525C19.8881 18.525 20.1806 18.6462 20.3963 18.8618C20.6119 19.0775 20.7331 19.37 20.7331 19.675ZM20.7331 15.075C20.7331 15.38 20.6119 15.6725 20.3963 15.8882C20.1806 16.1038 19.8881 16.225 19.5831 16.225C19.2781 16.225 18.9856 16.1038 18.7699 15.8882C18.5543 15.6725 18.4331 15.38 18.4331 15.075C18.4331 14.77 18.5543 14.4775 18.7699 14.2618C18.9856 14.0462 19.2781 13.925 19.5831 13.925C19.8881 13.925 20.1806 14.0462 20.3963 14.2618C20.6119 14.4775 20.7331 14.77 20.7331 15.075ZM14.9831 19.675C14.9831 19.98 14.8619 20.2725 14.6463 20.4882C14.4306 20.7038 14.1381 20.825 13.8331 20.825C13.5281 20.825 13.2356 20.7038 13.0199 20.4882C12.8043 20.2725 12.6831 19.98 12.6831 19.675C12.6831 19.37 12.8043 19.0775 13.0199 18.8618C13.2356 18.6462 13.5281 18.525 13.8331 18.525C14.1381 18.525 14.4306 18.6462 14.6463 18.8618C14.8619 19.0775 14.9831 19.37 14.9831 19.675ZM14.9831 15.075C14.9831 15.38 14.8619 15.6725 14.6463 15.8882C14.4306 16.1038 14.1381 16.225 13.8331 16.225C13.5281 16.225 13.2356 16.1038 13.0199 15.8882C12.8043 15.6725 12.6831 15.38 12.6831 15.075C12.6831 14.77 12.8043 14.4775 13.0199 14.2618C13.2356 14.0462 13.5281 13.925 13.8331 13.925C14.1381 13.925 14.4306 14.0462 14.6463 14.2618C14.8619 14.4775 14.9831 14.77 14.9831 15.075ZM9.23311 19.675C9.23311 19.98 9.11194 20.2725 8.89628 20.4882C8.68061 20.7038 8.3881 20.825 8.08311 20.825C7.77811 20.825 7.4856 20.7038 7.26993 20.4882C7.05427 20.2725 6.93311 19.98 6.93311 19.675C6.93311 19.37 7.05427 19.0775 7.26993 18.8618C7.4856 18.6462 7.77811 18.525 8.08311 18.525C8.3881 18.525 8.68061 18.6462 8.89628 18.8618C9.11194 19.0775 9.23311 19.37 9.23311 19.675ZM9.23311 15.075C9.23311 15.38 9.11194 15.6725 8.89628 15.8882C8.68061 16.1038 8.3881 16.225 8.08311 16.225C7.77811 16.225 7.4856 16.1038 7.26993 15.8882C7.05427 15.6725 6.93311 15.38 6.93311 15.075C6.93311 14.77 7.05427 14.4775 7.26993 14.2618C7.4856 14.0462 7.77811 13.925 8.08311 13.925C8.3881 13.925 8.68061 14.0462 8.89628 14.2618C9.11194 14.4775 9.23311 14.77 9.23311 15.075Z" fill="#343434"/>
</g>
<defs>
<clipPath id="clip0_14_994">
<rect width="28" height="28" fill="white"/>
</clipPath>
</defs>
</svg>
