<svg width="28" height="28" viewBox="0 0 28 28" fill="none" xmlns="http://www.w3.org/2000/svg">
<path d="M9.2791 3.83074C9.2791 3.61041 9.18823 3.39911 9.02648 3.24332C8.86473 3.08752 8.64535 3 8.4166 3C8.18785 3 7.96847 3.08752 7.80672 3.24332C7.64497 3.39911 7.5541 3.61041 7.5541 3.83074V5.58083C5.8981 5.70821 4.8125 6.02057 4.0144 6.79039C3.21515 7.55911 2.89085 8.60584 2.75745 10.1998H25.5757C25.4423 8.60473 25.118 7.55911 24.3188 6.79039C23.5207 6.02057 22.4339 5.70821 20.7791 5.57973V3.83074C20.7791 3.61041 20.6882 3.39911 20.5265 3.24332C20.3647 3.08752 20.1453 3 19.9166 3C19.6878 3 19.4685 3.08752 19.3067 3.24332C19.145 3.39911 19.0541 3.61041 19.0541 3.83074V5.50662C18.2893 5.49222 17.4314 5.49222 16.4666 5.49222H11.8666C10.9017 5.49222 10.0438 5.49222 9.2791 5.50662V3.83074Z" fill="#343434"/>
<path fill-rule="evenodd" clip-rule="evenodd" d="M2.66663 14.3535C2.66663 13.4242 2.66663 12.5978 2.68158 11.8613H25.6517C25.6666 12.5978 25.6666 13.4242 25.6666 14.3535V16.5688C25.6666 20.7457 25.6666 22.8348 24.3188 24.1318C22.971 25.4289 20.8033 25.43 16.4666 25.43H11.8666C7.52998 25.43 5.36108 25.43 4.01443 24.1318C2.66778 22.8337 2.66663 20.7457 2.66663 16.5688V14.3535ZM19.9166 16.5688C20.2216 16.5688 20.5141 16.4521 20.7298 16.2444C20.9455 16.0366 21.0666 15.7549 21.0666 15.4611C21.0666 15.1674 20.9455 14.8856 20.7298 14.6779C20.5141 14.4702 20.2216 14.3535 19.9166 14.3535C19.6116 14.3535 19.3191 14.4702 19.1035 14.6779C18.8878 14.8856 18.7666 15.1674 18.7666 15.4611C18.7666 15.7549 18.8878 16.0366 19.1035 16.2444C19.3191 16.4521 19.6116 16.5688 19.9166 16.5688ZM19.9166 20.9994C20.2216 20.9994 20.5141 20.8827 20.7298 20.675C20.9455 20.4673 21.0666 20.1855 21.0666 19.8917C21.0666 19.598 20.9455 19.3162 20.7298 19.1085C20.5141 18.9008 20.2216 18.7841 19.9166 18.7841C19.6116 18.7841 19.3191 18.9008 19.1035 19.1085C18.8878 19.3162 18.7666 19.598 18.7666 19.8917C18.7666 20.1855 18.8878 20.4673 19.1035 20.675C19.3191 20.8827 19.6116 20.9994 19.9166 20.9994ZM15.3166 15.4611C15.3166 15.7549 15.1955 16.0366 14.9798 16.2444C14.7641 16.4521 14.4716 16.5688 14.1666 16.5688C13.8616 16.5688 13.5691 16.4521 13.3535 16.2444C13.1378 16.0366 13.0166 15.7549 13.0166 15.4611C13.0166 15.1674 13.1378 14.8856 13.3535 14.6779C13.5691 14.4702 13.8616 14.3535 14.1666 14.3535C14.4716 14.3535 14.7641 14.4702 14.9798 14.6779C15.1955 14.8856 15.3166 15.1674 15.3166 15.4611ZM15.3166 19.8917C15.3166 20.1855 15.1955 20.4673 14.9798 20.675C14.7641 20.8827 14.4716 20.9994 14.1666 20.9994C13.8616 20.9994 13.5691 20.8827 13.3535 20.675C13.1378 20.4673 13.0166 20.1855 13.0166 19.8917C13.0166 19.598 13.1378 19.3162 13.3535 19.1085C13.5691 18.9008 13.8616 18.7841 14.1666 18.7841C14.4716 18.7841 14.7641 18.9008 14.9798 19.1085C15.1955 19.3162 15.3166 19.598 15.3166 19.8917ZM8.41663 16.5688C8.72162 16.5688 9.01413 16.4521 9.2298 16.2444C9.44547 16.0366 9.56663 15.7549 9.56663 15.4611C9.56663 15.1674 9.44547 14.8856 9.2298 14.6779C9.01413 14.4702 8.72162 14.3535 8.41663 14.3535C8.11163 14.3535 7.81912 14.4702 7.60345 14.6779C7.38779 14.8856 7.26663 15.1674 7.26663 15.4611C7.26663 15.7549 7.38779 16.0366 7.60345 16.2444C7.81912 16.4521 8.11163 16.5688 8.41663 16.5688ZM8.41663 20.9994C8.72162 20.9994 9.01413 20.8827 9.2298 20.675C9.44547 20.4673 9.56663 20.1855 9.56663 19.8917C9.56663 19.598 9.44547 19.3162 9.2298 19.1085C9.01413 18.9008 8.72162 18.7841 8.41663 18.7841C8.11163 18.7841 7.81912 18.9008 7.60345 19.1085C7.38779 19.3162 7.26663 19.598 7.26663 19.8917C7.26663 20.1855 7.38779 20.4673 7.60345 20.675C7.81912 20.8827 8.11163 20.9994 8.41663 20.9994Z" fill="#343434"/>
</svg>
