<svg width="28" height="28" viewBox="0 0 28 28" fill="none" xmlns="http://www.w3.org/2000/svg">
<path d="M18.3322 24.2429H18.3323V24.2356V20.6682C18.3323 19.9633 18.0501 19.2888 17.5503 18.7926C17.0507 18.2967 16.3747 18.0194 15.6713 18.0194H12.3181C10.8554 18.0194 9.6572 19.1984 9.6572 20.6682V23.5131L9.63112 23.5218L9.62589 24.2386C9.62421 24.4687 9.43379 24.6667 9.1843 24.6667H6.94883C5.2673 24.6667 3.91663 23.3153 3.91663 21.6638V11.5243C3.93303 10.9614 4.20233 10.4327 4.65464 10.0846L4.66224 10.0788L4.66972 10.0728L12.2745 3.9855L12.2883 3.97443L12.3018 3.96287C13.2504 3.14675 14.6538 3.1213 15.632 3.90304L15.635 3.90544L23.4076 10.068C23.8372 10.4285 24.0833 10.9568 24.0833 11.5113V21.6741C24.0833 22.4668 23.7656 23.2283 23.1981 23.7903C22.6302 24.3526 21.8588 24.6687 21.0537 24.6667H21.0511H18.7634C18.6461 24.6667 18.5352 24.6201 18.4548 24.5398C18.3747 24.4596 18.3314 24.3526 18.3322 24.2429Z" stroke="#343434" stroke-width="2"/>
</svg>
