<svg width="28" height="28" viewBox="0 0 28 28" fill="none" xmlns="http://www.w3.org/2000/svg">
<path d="M10.6572 24.2356V20.6682C10.6572 19.7576 11.4008 19.0194 12.3181 19.0194H15.6713C16.1118 19.0194 16.5343 19.1931 16.8458 19.5023C17.1573 19.8115 17.3323 20.2309 17.3323 20.6682V24.2356C17.3295 24.6142 17.479 24.9782 17.7477 25.2469C18.0164 25.5156 18.382 25.6667 18.7634 25.6667H21.0511C22.1195 25.6694 23.1452 25.25 23.9017 24.5009C24.6581 23.7519 25.0833 22.7348 25.0833 21.6741V11.5113C25.0833 10.6545 24.7007 9.84181 24.0387 9.29211L16.2563 3.12184C14.9026 2.03998 12.9629 2.07491 11.6496 3.2048L4.04481 9.29211C3.35149 9.82561 2.9371 10.6407 2.91663 11.5113V21.6638C2.91663 23.8745 4.7219 25.6667 6.94883 25.6667H9.1843C9.97639 25.6667 10.6201 25.0322 10.6259 24.2459L10.6572 24.2356Z" fill="#343434"/>
</svg>
