<svg width="20" height="20" viewBox="0 0 20 20" fill="none" xmlns="http://www.w3.org/2000/svg">
<path d="M5.83337 1.66666H14.1667C14.8297 1.66666 15.4656 1.93005 15.9345 2.39889C16.4033 2.86773 16.6667 3.50362 16.6667 4.16666V15.8333C16.6667 16.4964 16.4033 17.1322 15.9345 17.6011C15.4656 18.0699 14.8297 18.3333 14.1667 18.3333H5.83337C5.17033 18.3333 4.53445 18.0699 4.06561 17.6011C3.59677 17.1322 3.33337 16.4964 3.33337 15.8333V4.16666C3.33337 3.50362 3.59677 2.86773 4.06561 2.39889C4.53445 1.93005 5.17033 1.66666 5.83337 1.66666ZM6.66671 7.49999C6.44569 7.49999 6.23373 7.58779 6.07745 7.74407C5.92117 7.90035 5.83337 8.11231 5.83337 8.33332C5.83337 8.55434 5.92117 8.7663 6.07745 8.92258C6.23373 9.07886 6.44569 9.16666 6.66671 9.16666H13.3334C13.5544 9.16666 13.7663 9.07886 13.9226 8.92258C14.0789 8.7663 14.1667 8.55434 14.1667 8.33332C14.1667 8.11231 14.0789 7.90035 13.9226 7.74407C13.7663 7.58779 13.5544 7.49999 13.3334 7.49999H6.66671ZM6.66671 14.1667C6.44569 14.1667 6.23373 14.2545 6.07745 14.4107C5.92117 14.567 5.83337 14.779 5.83337 15C5.83337 15.221 5.92117 15.433 6.07745 15.5892C6.23373 15.7455 6.44569 15.8333 6.66671 15.8333H10.8334C11.0544 15.8333 11.2663 15.7455 11.4226 15.5892C11.5789 15.433 11.6667 15.221 11.6667 15C11.6667 14.779 11.5789 14.567 11.4226 14.4107C11.2663 14.2545 11.0544 14.1667 10.8334 14.1667H6.66671ZM6.66671 4.16666C6.44569 4.16666 6.23373 4.25445 6.07745 4.41073C5.92117 4.56701 5.83337 4.77898 5.83337 4.99999C5.83337 5.221 5.92117 5.43296 6.07745 5.58925C6.23373 5.74553 6.44569 5.83332 6.66671 5.83332H13.3334C13.5544 5.83332 13.7663 5.74553 13.9226 5.58925C14.0789 5.43296 14.1667 5.221 14.1667 4.99999C14.1667 4.77898 14.0789 4.56701 13.9226 4.41073C13.7663 4.25445 13.5544 4.16666 13.3334 4.16666H6.66671ZM6.66671 10.8333C6.44569 10.8333 6.23373 10.9211 6.07745 11.0774C5.92117 11.2337 5.83337 11.4456 5.83337 11.6667C5.83337 11.8877 5.92117 12.0996 6.07745 12.2559C6.23373 12.4122 6.44569 12.5 6.66671 12.5H13.3334C13.5544 12.5 13.7663 12.4122 13.9226 12.2559C14.0789 12.0996 14.1667 11.8877 14.1667 11.6667C14.1667 11.4456 14.0789 11.2337 13.9226 11.0774C13.7663 10.9211 13.5544 10.8333 13.3334 10.8333H6.66671Z" fill="#343434"/>
</svg>
