<svg width="20" height="20" viewBox="0 0 20 20" fill="none" xmlns="http://www.w3.org/2000/svg">
<path d="M10 14.5342C10.2479 14.5342 10.4559 14.4467 10.6239 14.2717C10.7919 14.0967 10.8756 13.8804 10.875 13.6228V9.97722C10.875 9.71899 10.791 9.50268 10.623 9.3283C10.455 9.15392 10.2473 9.06643 10 9.06582C9.75267 9.06522 9.545 9.15271 9.377 9.3283C9.209 9.5039 9.125 9.7202 9.125 9.97722V13.6228C9.125 13.881 9.209 14.0976 9.377 14.2726C9.545 14.4476 9.75267 14.5348 10 14.5342ZM10 7.24304C10.2479 7.24304 10.4559 7.15554 10.6239 6.98056C10.7919 6.80557 10.8756 6.58927 10.875 6.33165C10.8744 6.07403 10.7904 5.85772 10.623 5.68273C10.4556 5.50775 10.2479 5.42025 10 5.42025C9.75208 5.42025 9.54442 5.50775 9.377 5.68273C9.20958 5.85772 9.12558 6.07403 9.125 6.33165C9.12442 6.58927 9.20842 6.80587 9.377 6.98147C9.54558 7.15706 9.75325 7.24425 10 7.24304ZM10 19C9.89792 19 9.80312 18.9924 9.71562 18.9772C9.62812 18.962 9.54062 18.9392 9.45312 18.9089C7.48437 18.2253 5.91667 16.9606 4.75 15.1147C3.58333 13.2689 3 11.2829 3 9.15696V4.85063C3 4.47089 3.10587 4.12911 3.31762 3.82532C3.52937 3.52152 3.80267 3.30127 4.1375 3.16456L9.3875 1.11392C9.59167 1.03797 9.79583 1 10 1C10.2042 1 10.4083 1.03797 10.6125 1.11392L15.8625 3.16456C16.1979 3.30127 16.4715 3.52152 16.6832 3.82532C16.895 4.12911 17.0006 4.47089 17 4.85063V9.15696C17 11.2835 16.4167 13.2698 15.25 15.1156C14.0833 16.9615 12.5156 18.2259 10.5469 18.9089C10.4594 18.9392 10.3719 18.962 10.2844 18.9772C10.1969 18.9924 10.1021 19 10 19ZM10 17.1772C11.5167 16.6759 12.7708 15.6734 13.7625 14.1696C14.7542 12.6658 15.25 10.9949 15.25 9.15696V4.85063L10 2.8L4.75 4.85063V9.15696C4.75 10.9949 5.24583 12.6658 6.2375 14.1696C7.22917 15.6734 8.48333 16.6759 10 17.1772Z" fill="#343434"/>
</svg>
