<svg width="20" height="20" viewBox="0 0 20 20" fill="none" xmlns="http://www.w3.org/2000/svg">
<path d="M7.56411 14.2796L10 12.4137L12.4359 14.2796L11.5224 11.2034L13.8061 9.58965H10.9642L10 6.46302L9.0358 9.58965H6.19393L8.47757 11.2034L7.56411 14.2796ZM10 14.9352L6.24468 17.7845C6.0586 17.9357 5.85561 18.0074 5.6357 17.9993C5.4158 17.9912 5.22127 17.928 5.05211 17.8097C4.88295 17.6913 4.75202 17.5316 4.65932 17.3306C4.56662 17.1295 4.56222 16.911 4.64613 16.675L6.09243 12.0103L2.41323 9.41315C2.21024 9.27867 2.08337 9.10217 2.03262 8.88364C1.98188 8.66511 1.99033 8.46339 2.058 8.27849C2.12566 8.09358 2.24407 7.92951 2.41323 7.78629C2.58239 7.64307 2.78538 7.5718 3.0222 7.57247H7.56411L9.0358 2.73123C9.12037 2.4959 9.25164 2.31502 9.4296 2.18861C9.60755 2.0622 9.79769 1.99933 10 2.00001C10.2023 2.00068 10.3928 2.06388 10.5714 2.18962C10.75 2.31536 10.881 2.4959 10.9642 2.73123L12.4359 7.57247H16.9778C17.2146 7.57247 17.4176 7.64408 17.5868 7.7873C17.7559 7.93052 17.8743 8.09425 17.942 8.27849C18.0097 8.46272 18.0181 8.66444 17.9674 8.88364C17.9166 9.10284 17.7898 9.27934 17.5868 9.41315L13.9076 12.0103L15.3539 16.675C15.4385 16.9103 15.4344 17.1289 15.3417 17.3306C15.249 17.5323 15.1177 17.692 14.9479 17.8097C14.7781 17.9273 14.5835 17.9905 14.3643 17.9993C14.1451 18.008 13.9421 17.9364 13.7553 17.7845L10 14.9352Z" fill="#343434"/>
</svg>
