<svg width="20" height="20" viewBox="0 0 20 20" fill="none" xmlns="http://www.w3.org/2000/svg">
<path d="M10.8333 7.49999H9.16663V5.83332H10.8333M10.8333 14.1667H9.16663V9.16666H10.8333M9.99996 1.66666C8.90561 1.66666 7.82198 1.8822 6.81093 2.30099C5.79988 2.71978 4.88122 3.33361 4.1074 4.10743C2.5446 5.67024 1.66663 7.78985 1.66663 9.99999C1.66663 12.2101 2.5446 14.3297 4.1074 15.8925C4.88122 16.6664 5.79988 17.2802 6.81093 17.699C7.82198 18.1178 8.90561 18.3333 9.99996 18.3333C12.2101 18.3333 14.3297 17.4553 15.8925 15.8925C17.4553 14.3297 18.3333 12.2101 18.3333 9.99999C18.3333 8.90564 18.1177 7.82201 17.699 6.81096C17.2802 5.79991 16.6663 4.88125 15.8925 4.10743C15.1187 3.33361 14.2 2.71978 13.189 2.30099C12.1779 1.8822 11.0943 1.66666 9.99996 1.66666Z" fill="#343434"/>
</svg>
