<svg width="20" height="20" viewBox="0 0 20 20" fill="none" xmlns="http://www.w3.org/2000/svg">
<path d="M10.7792 2.39833L16.7634 5.56166C17.6517 6.03083 17.6517 7.30333 16.7634 7.77167L15.7017 8.33333L16.7634 8.895C17.6517 9.36416 17.6517 10.6367 16.7634 11.105L15.7017 11.6667L16.7634 12.2283C17.6517 12.6975 17.6517 13.97 16.7634 14.4383L10.7792 17.6017C10.5391 17.7286 10.2716 17.795 10 17.795C9.72842 17.795 9.46094 17.7286 9.22085 17.6017L3.23668 14.4383C2.34835 13.9692 2.34835 12.6975 3.23668 12.2283L4.29918 11.6667L3.23668 11.105C2.34835 10.6358 2.34835 9.36416 3.23668 8.895L4.29918 8.33333L3.23668 7.77167C2.34835 7.3025 2.34835 6.03083 3.23668 5.56166L9.22085 2.39833C9.46094 2.27136 9.72842 2.20499 10 2.20499C10.2716 2.20499 10.5391 2.27136 10.7792 2.39833ZM13.9184 12.6092L10.7792 14.2683C10.5391 14.3953 10.2716 14.4617 10 14.4617C9.72842 14.4617 9.46094 14.3953 9.22085 14.2683L6.08168 12.61L4.71252 13.3333L10 16.1283L15.2884 13.3333L13.9184 12.6092ZM13.9184 9.27583L10.7792 10.9358C10.5615 11.0508 10.321 11.1161 10.075 11.1271C9.82908 11.138 9.58375 11.0943 9.35668 10.9992L9.22085 10.9358L6.08168 9.27583L4.71252 10.0008L10 12.7942L15.2884 10L13.9184 9.27583ZM10 3.87166L4.71252 6.66666L10 9.46166L15.2884 6.66666L10 3.87166Z" fill="#343434"/>
</svg>
