<svg width="16" height="16" viewBox="0 0 16 16" fill="none" xmlns="http://www.w3.org/2000/svg">
<path d="M3.33333 6.66666C2.6 6.66666 2 7.26666 2 8C2 8.73333 2.6 9.33333 3.33333 9.33333C4.06667 9.33333 4.66667 8.73333 4.66667 8C4.66667 7.26666 4.06667 6.66666 3.33333 6.66666Z" fill="#343434"/>
<path d="M12.6667 6.66666C11.9334 6.66666 11.3334 7.26666 11.3334 8C11.3334 8.73333 11.9334 9.33333 12.6667 9.33333C13.4 9.33333 14 8.73333 14 8C14 7.26666 13.4 6.66666 12.6667 6.66666Z" fill="#343434"/>
<path d="M7.99996 6.66666C7.26663 6.66666 6.66663 7.26666 6.66663 8C6.66663 8.73333 7.26663 9.33333 7.99996 9.33333C8.73329 9.33333 9.33329 8.73333 9.33329 8C9.33329 7.26666 8.73329 6.66666 7.99996 6.66666Z" fill="#343434"/>
</svg>
