<svg width="14" height="18" viewBox="0 0 14 18" fill="none" xmlns="http://www.w3.org/2000/svg">
<path fill-rule="evenodd" clip-rule="evenodd" d="M10.5664 1.50651C8.40208 0.185838 5.71651 0.16339 3.53164 1.44771C1.34677 2.73202 -0.00144585 5.12562 1.16361e-06 7.7177C0.0658349 9.62125 0.698592 11.4578 1.81234 12.9779C3.14335 14.799 4.78245 16.3575 6.65079 17.5785C6.76936 17.6513 6.90364 17.6925 7.04153 17.6984C7.18479 17.6759 7.32285 17.6265 7.44889 17.5528C8.67266 16.7402 9.79989 15.7827 10.8075 14.6999C12.5534 12.8323 13.95 10.4164 13.9999 7.84621C14.012 5.25909 12.7095 2.85408 10.5664 1.50651ZM6.99163 10.3049C6.02921 10.3049 5.1617 9.70699 4.79418 8.79036C4.42666 7.87373 4.63161 6.81918 5.31334 6.11911C5.99507 5.41903 7.0191 5.21152 7.9073 5.59347C8.7955 5.97542 9.37266 6.87148 9.36929 7.86327C9.37153 8.51302 9.12148 9.1367 8.67485 9.59535C8.22823 10.054 7.62214 10.3095 6.99163 10.3049Z" fill="#343434"/>
</svg>
