<svg width="28" height="28" viewBox="0 0 28 28" fill="none" xmlns="http://www.w3.org/2000/svg">
<path d="M15.212 25.9482L12.9321 25.9998M15.212 25.9482C15.3802 25.9442 15.5433 25.8898 15.6803 25.792C15.8172 25.6942 15.9216 25.5576 15.98 25.3998L12.9321 25.9998M15.212 25.9482L15.195 25.1984L15.1944 25.1984M15.212 25.9482L15.276 25.141M12.9321 25.9998C12.7593 26.0038 12.5896 25.9544 12.4459 25.8584C12.3023 25.7625 12.1917 25.6245 12.1293 25.4634L12.9321 25.9998ZM15.276 25.141C15.2762 25.1405 15.2764 25.1401 15.2765 25.1396L16.0545 22.9851L16.1723 22.659L16.497 22.5374L17.3728 22.2096C17.3732 22.2094 17.3737 22.2092 17.3741 22.2091C17.6769 22.0944 17.9721 21.9606 18.258 21.8085L18.6095 21.6214L18.9614 21.8079L20.9725 22.8735L20.9742 22.8744C20.9905 22.883 21.009 22.8865 21.0273 22.8843C21.0456 22.8821 21.0628 22.8743 21.0765 22.862L21.077 22.8616L23.0281 21.1192L23.0312 21.1165C23.0418 21.1071 23.0491 21.0946 23.0521 21.0807C23.055 21.0668 23.0534 21.0524 23.0475 21.0395L23.0459 21.0361L22.02 18.7682L21.8822 18.4637L22.0166 18.1576C22.1401 17.8763 22.2506 17.5894 22.3478 17.298C22.402 17.1271 22.457 16.9127 22.5113 16.6508L22.597 16.2377L22.9945 16.0964L25.0368 15.3704L25.0397 15.3694C25.0541 15.3643 25.0667 15.3551 25.076 15.343C25.0851 15.331 25.0905 15.3166 25.0917 15.3016C25.0917 15.3014 25.0917 15.3012 25.0917 15.301L25.2499 12.8145C25.2499 12.8143 25.2499 12.8142 25.2499 12.8141C25.2514 12.7876 25.2362 12.757 25.2017 12.7423L25.2002 12.7417L23.0439 11.8177L22.752 11.6926L22.6387 11.3959C22.4924 11.013 22.3747 10.7274 22.2843 10.5315C22.1995 10.3488 22.0842 10.1222 21.9361 9.84922L21.7632 9.53061L21.9055 9.1972L22.8303 7.02968C22.8303 7.0296 22.8304 7.02952 22.8304 7.02944C22.8366 7.01466 22.8375 7.00104 22.8353 6.9888C22.833 6.97651 22.8271 6.96353 22.8153 6.95122C22.8152 6.95118 22.8152 6.95114 22.8152 6.9511L21.0809 5.15799C21.0673 5.14396 21.0495 5.13473 21.0302 5.13169C21.0109 5.12865 20.9912 5.13198 20.9739 5.14115L20.9722 5.14208L18.9995 6.18606L18.6704 6.36024L18.3327 6.20334C17.958 6.02928 17.6697 5.90812 17.4609 5.83365C17.2706 5.76581 17.034 5.6958 16.7474 5.62472L16.3584 5.52824L16.2224 5.15128L15.3754 2.80325C15.3754 2.80317 15.3753 2.8031 15.3753 2.80302C15.3653 2.77572 15.3349 2.75 15.2936 2.75H12.7818C12.7636 2.7501 12.7457 2.75576 12.7307 2.76625C12.716 2.77654 12.7047 2.791 12.6983 2.80776L11.9077 5.01307L11.7879 5.34745L11.4532 5.46656C11.0564 5.60776 10.7641 5.73237 10.563 5.83848L10.5607 5.8397C10.3832 5.93255 10.1775 6.05568 9.94215 6.2123L9.60954 6.4337L9.24024 6.28115L6.96272 5.34036L6.96109 5.33969C6.94503 5.33301 6.92738 5.33113 6.91027 5.33428C6.89317 5.33742 6.87734 5.34546 6.8647 5.35742L6.86407 5.35803L5.17932 6.94921L5.17589 6.95246L5.17588 6.95245C5.16562 6.96201 5.15867 6.97461 5.15605 6.9884C5.15343 7.00219 5.15528 7.01646 5.16132 7.02913L5.16228 7.03113L6.13904 9.09511L6.29413 9.42283L6.13363 9.74794C6.00634 10.0058 5.89017 10.269 5.78545 10.5368C5.71714 10.7221 5.63264 10.9949 5.53206 11.3647L5.44209 11.6955L5.13306 11.844L2.87954 12.9264L2.8781 12.9271C2.86531 12.9332 2.85443 12.9426 2.84662 12.9545C2.83898 12.9661 2.83457 12.9795 2.83383 12.9933C2.83382 12.9936 2.83381 12.9939 2.83379 12.9942L2.75004 15.2927C2.75003 15.293 2.75003 15.2932 2.75002 15.2934C2.74961 15.3104 2.75474 15.327 2.76462 15.3408L2.15522 15.7779L2.76462 15.3408C2.77464 15.3547 2.78898 15.365 2.80542 15.3699L2.80688 15.3704L4.9548 16.0244L5.32461 16.137L5.44746 16.5035C5.5518 16.8148 5.66565 17.1228 5.78888 17.4271C5.89277 17.6704 6.00522 17.91 6.12601 18.1455L6.29232 18.4696L6.14035 18.8007L5.15999 20.9367L5.15952 20.9377C5.15369 20.9503 5.15201 20.9645 5.15472 20.9781C5.15742 20.9918 5.16436 21.0042 5.17456 21.0137L5.1775 21.0164L6.86463 22.5992L6.86484 22.5994C6.8776 22.6114 6.89357 22.6194 6.9108 22.6224C6.92803 22.6255 6.94578 22.6234 6.96187 22.6165L6.96272 22.6161L9.24264 21.6418L9.56766 21.5028L9.88168 21.6651C10.107 21.7816 10.3363 21.8903 10.569 21.9913C10.8606 22.1094 11.1555 22.2195 11.4532 22.3215L11.787 22.4358L11.9117 22.7659L12.8287 25.1925C12.8288 25.193 12.829 25.1934 12.8292 25.1939C12.836 25.2106 12.8476 25.2248 12.8626 25.2348C12.878 25.2451 12.8962 25.2504 12.9147 25.25L12.9151 25.25L15.1943 25.1984C15.1943 25.1984 15.1944 25.1984 15.1944 25.1984M15.276 25.141C15.2697 25.1573 15.2587 25.1715 15.2444 25.1817C15.2298 25.1921 15.2124 25.1979 15.1944 25.1984M15.276 25.141L15.1944 25.1984M14.0288 9.67272C11.6226 9.67272 9.65735 11.6022 9.65735 14.0023C9.65735 16.402 11.6223 18.3331 14.0288 18.3331C16.4357 18.3331 18.3991 16.4017 18.3991 14.0023C18.3991 11.6026 16.4354 9.67272 14.0288 9.67272Z" stroke="#343434" stroke-width="1.5"/>
</svg>
