<svg width="28" height="28" viewBox="0 0 28 28" fill="none" xmlns="http://www.w3.org/2000/svg">
<path d="M15.2936 2C15.6464 2 15.962 2.2196 16.0808 2.54839L16.9279 4.89677C17.2311 4.97197 17.4927 5.04877 17.7127 5.12717C17.9527 5.21277 18.2647 5.34477 18.6487 5.52317L20.6214 4.47918C20.7823 4.39347 20.9668 4.36246 21.1469 4.39082C21.327 4.41918 21.493 4.50537 21.6198 4.63638L23.3549 6.43036C23.5853 6.66916 23.6501 7.01835 23.5205 7.32315L22.5953 9.49153C22.7481 9.77313 22.8713 10.0147 22.9649 10.2163C23.0657 10.4347 23.1905 10.7387 23.3393 11.1283L25.4956 12.0523C25.8196 12.1903 26.02 12.5143 25.9984 12.8611L25.84 15.3511C25.8292 15.5128 25.7711 15.6679 25.673 15.7969C25.5749 15.926 25.441 16.0234 25.288 16.0771L23.2457 16.8031C23.1873 17.0847 23.1257 17.3271 23.0609 17.5303C22.9561 17.8452 22.8367 18.1551 22.7033 18.459L23.7293 20.727C23.8023 20.8863 23.8221 21.0648 23.7858 21.2361C23.7495 21.4075 23.659 21.5627 23.5277 21.6786L21.5766 23.421C21.4483 23.5357 21.2879 23.6083 21.1171 23.6289C20.9463 23.6495 20.7732 23.6171 20.6214 23.5362L18.6103 22.4706C18.2959 22.6379 17.9713 22.785 17.6383 22.911L16.7599 23.2398L15.98 25.3998C15.9216 25.5576 15.8172 25.6942 15.6803 25.792C15.5433 25.8898 15.3802 25.9442 15.212 25.9482L12.9321 25.9998C12.7593 26.0038 12.5896 25.9544 12.4459 25.8584C12.3023 25.7625 12.1917 25.6245 12.1293 25.4634L11.2101 23.031C10.8966 22.9236 10.5861 22.8076 10.279 22.683C10.0278 22.5743 9.78049 22.457 9.53738 22.3314L7.25746 23.3058C7.10729 23.3702 6.9416 23.3894 6.78068 23.3611C6.61977 23.3327 6.47061 23.258 6.35149 23.1462L4.66435 21.5634C4.53827 21.4464 4.45239 21.2925 4.41899 21.1238C4.38559 20.955 4.40637 20.7801 4.47836 20.6238L5.45872 18.4878C5.3288 18.2346 5.20793 17.9769 5.09633 17.7151C4.96635 17.3944 4.84629 17.0699 4.73635 16.7419L2.58842 16.0879C2.41383 16.0351 2.26155 15.9261 2.15522 15.7779C2.0489 15.6297 1.99449 15.4506 2.00044 15.2683L2.08444 12.9631C2.09068 12.8128 2.13777 12.667 2.22064 12.5414C2.30352 12.4158 2.41905 12.3152 2.55482 12.2503L4.80834 11.1679C4.91234 10.7855 5.00434 10.4863 5.08433 10.2703C5.19755 9.98023 5.32327 9.69516 5.46112 9.41593L4.48435 7.35195C4.40967 7.19533 4.38685 7.01897 4.41922 6.8485C4.45159 6.67802 4.53745 6.52231 4.66435 6.40396L6.34909 4.81277C6.46703 4.70112 6.61482 4.62605 6.77455 4.59666C6.93427 4.56727 7.0991 4.58482 7.24906 4.64718L9.52658 5.58797C9.77777 5.42077 10.0066 5.28317 10.213 5.17517C10.4585 5.04557 10.7881 4.90717 11.2017 4.75997L11.9937 2.55079C12.0528 2.38951 12.16 2.25023 12.3008 2.15174C12.4415 2.05326 12.6091 2.0003 12.7809 2H15.2936ZM14.0288 10.4227C12.0285 10.4227 10.4074 12.0247 10.4074 14.0023C10.4074 15.9799 12.0285 17.5831 14.0288 17.5831C16.0292 17.5831 17.6491 15.9799 17.6491 14.0023C17.6491 12.0247 16.0292 10.4227 14.0288 10.4227Z" fill="#343434"/>
</svg>
